<?xml version="1.0" encoding="UTF-8" standalone="no"?>
<!-- Created with Inkscape (http://www.inkscape.org/) -->

<svg xmlns:dc="http://purl.org/dc/elements/1.1/" xmlns:cc="http://creativecommons.org/ns#" xmlns:rdf="http://www.w3.org/1999/02/22-rdf-syntax-ns#" xmlns:svg="http://www.w3.org/2000/svg" xmlns="http://www.w3.org/2000/svg" xmlns:sodipodi="http://sodipodi.sourceforge.net/DTD/sodipodi-0.dtd" xmlns:inkscape="http://www.inkscape.org/namespaces/inkscape" width="12" height="12" id="svg2" version="1.1" inkscape:version="0.48.5 r10040" sodipodi:docname="external-link-02-shade-12-12.svg">
  <defs id="defs4">
    <inkscape:perspective sodipodi:type="inkscape:persp3d" inkscape:vp_x="0 : 526.18109 : 1" inkscape:vp_y="0 : 1000 : 0" inkscape:vp_z="744.09448 : 526.18109 : 1" inkscape:persp3d-origin="372.04724 : 350.78739 : 1" id="perspective10" />
  </defs>
  <sodipodi:namedview id="base" pagecolor="#ffffff" bordercolor="#666666" borderopacity="1.0" inkscape:pageopacity="0.0" inkscape:pageshadow="2" inkscape:zoom="1.19" inkscape:cx="6" inkscape:cy="6" inkscape:document-units="px" inkscape:current-layer="layer1" showgrid="false" units="px" objecttolerance="5" gridtolerance="5" guidetolerance="5" inkscape:window-width="1600" inkscape:window-height="878" inkscape:window-x="0" inkscape:window-y="0" inkscape:window-maximized="1">
    <inkscape:grid type="xygrid" id="grid3130" empspacing="4" visible="true" enabled="true" snapvisiblegridlinesonly="true" />
  </sodipodi:namedview>
  <metadata id="metadata7">
    <rdf:RDF>
      <cc:Work rdf:about="">
        <dc:format>image/svg+xml</dc:format>
        <dc:type rdf:resource="http://purl.org/dc/dcmitype/StillImage" />
        <dc:title></dc:title>
        <dc:creator>
          <cc:Agent>
            <dc:title>Andreas Neudecker &lt;zapyon@gmx.net&gt;</dc:title>
          </cc:Agent>
        </dc:creator>
        <dc:source />
      </cc:Work>
    </rdf:RDF>
  </metadata>
  <g inkscape:label="Ebene 1" inkscape:groupmode="layer" id="layer1" transform="translate(0,-1040.3622)">
    <g id="g3314">
      <path inkscape:connector-curvature="0" d="M 3.96875,1045.3624 C 2.8748947,1045.3625 2,1046.2373 2,1047.3312 l 0,3.031 c 0,1.0938 0.8748948,1.9999 1.96875,1.9999 L 7,1052.3622 c 1.0938606,-0.01 1.9832845,-0.9063 2,-2 l 0,-2 -1,0 0,2 c 0,0.554 -0.4460004,1 -1,1 l -3,0 c -0.5539713,0 -1,-0.446 -1,-1 l 0,-3 c 0,-0.554 0.446,-1 1,-1 l 2,0 0,-1 z" id="path3310" style="fill:#999;fill-opacity:1;fill-rule:nonzero;stroke:none" sodipodi:nodetypes="cssscsccssssssccc" />
      <path style="fill:#999;fill-opacity:1;fill-rule:nonzero;stroke:none" d="m 7,1042.3622 0,1 3.3125,0 -5.25,5.2813 0.6875,0.6875 5.25,-5.2813 0,3.3125 1,0 0,-5 z" id="path3312" inkscape:connector-curvature="0" sodipodi:nodetypes="cccccccccc" />
      <path sodipodi:nodetypes="cssscsccssssssccc" style="fill:blue;fill-opacity:1;fill-rule:nonzero;stroke:none" id="rect2985" d="M 1.96875,1043.3624 C 0.8748947,1043.3625 0,1044.2373 0,1045.3312 l 0,3.031 c 0,1.0938 0.87489478,1.9999 1.96875,1.9999 L 5,1050.3622 c 1.0938606,-0.01 1.9832845,-0.9063 2,-2 l 0,-2 -1,0 0,2 c 0,0.554 -0.4460004,1 -1,1 l -3,0 c -0.5539713,0 -1,-0.446 -1,-1 l 0,-3 c 0,-0.554 0.446,-1 1,-1 l 2,0 0,-1 z" inkscape:connector-curvature="0" />
      <path sodipodi:nodetypes="cccccccccc" inkscape:connector-curvature="0" id="rect3763" transform="translate(0,1040.3622)" d="M 5,0 5,1 8.3125,1 3.0625,6.28125 3.75,6.96875 9,1.6875 9,5 10,5 10,0 z" style="fill:blue;fill-opacity:1;fill-rule:nonzero;stroke:none" />
    </g>
  </g>
</svg>
