<?xml version="1.0" encoding="UTF-8" standalone="no"?>
<!-- Created with Inkscape (http://www.inkscape.org/) -->

<svg
   xmlns:dc="http://purl.org/dc/elements/1.1/"
   xmlns:cc="http://creativecommons.org/ns#"
   xmlns:rdf="http://www.w3.org/1999/02/22-rdf-syntax-ns#"
   xmlns:svg="http://www.w3.org/2000/svg"
   xmlns="http://www.w3.org/2000/svg"
   xmlns:xlink="http://www.w3.org/1999/xlink"
   xmlns:sodipodi="http://sodipodi.sourceforge.net/DTD/sodipodi-0.dtd"
   xmlns:inkscape="http://www.inkscape.org/namespaces/inkscape"
   width="36.297489mm"
   height="36.297489mm"
   viewBox="0 0 128.61315 128.61315"
   id="svg2"
   version="1.1"
   inkscape:version="0.91 r13725"
   inkscape:export-filename="/home/traian/Downloads/RV-error.png"
   inkscape:export-xdpi="11.2"
   inkscape:export-ydpi="11.2"
   sodipodi:docname="rv-error.svg">
  <defs
     id="defs4">
    <linearGradient
       id="linearGradient3957">
      <stop
         id="stop3959"
         offset="0"
         style="stop-color:#fffeff;stop-opacity:0.33333334;" />
      <stop
         id="stop3961"
         offset="1"
         style="stop-color:#fffeff;stop-opacity:0.21568628;" />
    </linearGradient>
    <linearGradient
       id="linearGradient2536">
      <stop
         id="stop2538"
         offset="0"
         style="stop-color:#a40000;stop-opacity:1;" />
      <stop
         id="stop2540"
         offset="1"
         style="stop-color:#ff1717;stop-opacity:1;" />
    </linearGradient>
    <linearGradient
       id="linearGradient2479">
      <stop
         id="stop2481"
         offset="0"
         style="stop-color:#ffe69b;stop-opacity:1;" />
      <stop
         id="stop2483"
         offset="1"
         style="stop-color:#ffffff;stop-opacity:1;" />
    </linearGradient>
    <linearGradient
       inkscape:collect="always"
       id="linearGradient4126">
      <stop
         style="stop-color:#000000;stop-opacity:1;"
         offset="0"
         id="stop4128" />
      <stop
         style="stop-color:#000000;stop-opacity:0;"
         offset="1"
         id="stop4130" />
    </linearGradient>
    <radialGradient
       r="17.142857"
       fy="40.000000"
       fx="23.857143"
       cy="40.000000"
       cx="23.857143"
       gradientTransform="matrix(1.000000,0.000000,0.000000,0.500000,1.899196e-14,20.00000)"
       gradientUnits="userSpaceOnUse"
       id="radialGradient2169"
       xlink:href="#linearGradient4126"
       inkscape:collect="always" />
    <linearGradient
       gradientUnits="userSpaceOnUse"
       y2="15.814602"
       x2="20.917078"
       y1="33.955299"
       x1="21.993773"
       id="linearGradient3963"
       xlink:href="#linearGradient3957"
       inkscape:collect="always" />
    <linearGradient
       inkscape:collect="always"
       xlink:href="#linearGradient2256"
       id="linearGradient2262"
       x1="21.75"
       y1="15.80225"
       x2="24.30225"
       y2="35.05225"
       gradientUnits="userSpaceOnUse"
       gradientTransform="translate(0,-2)" />
    <radialGradient
       inkscape:collect="always"
       xlink:href="#linearGradient15762"
       id="radialGradient2254"
       cx="16.75"
       cy="10.666344"
       fx="16.75"
       fy="10.666344"
       r="21.25"
       gradientTransform="matrix(4.154957,0,0,3.198723,-52.84553,-23.50921)"
       gradientUnits="userSpaceOnUse" />
    <linearGradient
       inkscape:collect="always"
       xlink:href="#linearGradient4981"
       id="linearGradient2243"
       gradientUnits="userSpaceOnUse"
       x1="23.995985"
       y1="20.105337"
       x2="41.047836"
       y2="37.959785"
       gradientTransform="matrix(0.988373,0.000000,0.000000,0.988373,0.279002,0.278984)" />
    <radialGradient
       inkscape:collect="always"
       xlink:href="#linearGradient9647"
       id="radialGradient2239"
       cx="24.30225"
       cy="33.30225"
       fx="24.30225"
       fy="33.30225"
       r="12.30225"
       gradientUnits="userSpaceOnUse"
       gradientTransform="matrix(1.693981,0,0,1.693981,-16.86529,-25.11111)" />
    <linearGradient
       inkscape:collect="always"
       xlink:href="#linearGradient15762"
       id="linearGradient7901"
       x1="15.578875"
       y1="16.285088"
       x2="32.166405"
       y2="28.394291"
       gradientUnits="userSpaceOnUse" />
    <linearGradient
       inkscape:collect="always"
       xlink:href="#linearGradient4981"
       id="linearGradient4987"
       x1="23.995985"
       y1="20.105337"
       x2="41.047836"
       y2="37.959785"
       gradientUnits="userSpaceOnUse"
       gradientTransform="translate(0,-2)" />
    <linearGradient
       inkscape:collect="always"
       xlink:href="#linearGradient11780"
       id="linearGradient2057"
       x1="15.737001"
       y1="12.503600"
       x2="53.570126"
       y2="47.374317"
       gradientUnits="userSpaceOnUse"
       gradientTransform="translate(0,-2)" />
    <linearGradient
       y2="9.6507530"
       x2="9.8940229"
       y1="5.3855424"
       x1="5.7365270"
       gradientTransform="matrix(-1.000000,0.000000,0.000000,-1.000000,31.72170,31.29079)"
       gradientUnits="userSpaceOnUse"
       id="linearGradient15772"
       xlink:href="#linearGradient15762"
       inkscape:collect="always" />
    <linearGradient
       id="linearGradient11014">
      <stop
         style="stop-color:#a80000;stop-opacity:1.0000000;"
         offset="0.0000000"
         id="stop11016" />
      <stop
         style="stop-color:#c60000;stop-opacity:1.0000000;"
         offset="0.0000000"
         id="stop13245" />
      <stop
         style="stop-color:#e50000;stop-opacity:1.0000000;"
         offset="1.0000000"
         id="stop11018" />
    </linearGradient>
    <linearGradient
       id="linearGradient11780">
      <stop
         style="stop-color:#ff8b8b;stop-opacity:1.0000000;"
         offset="0.0000000"
         id="stop11782" />
      <stop
         style="stop-color:#ec1b1b;stop-opacity:1.0000000;"
         offset="1.0000000"
         id="stop11784" />
    </linearGradient>
    <linearGradient
       id="linearGradient14236">
      <stop
         id="stop14238"
         offset="0.0000000"
         style="stop-color:#ed4040;stop-opacity:1.0000000;" />
      <stop
         id="stop14240"
         offset="1.0000000"
         style="stop-color:#a40000;stop-opacity:1.0000000;" />
    </linearGradient>
    <linearGradient
       id="linearGradient15762"
       inkscape:collect="always">
      <stop
         id="stop15764"
         offset="0"
         style="stop-color:#ffffff;stop-opacity:1;" />
      <stop
         id="stop15766"
         offset="1"
         style="stop-color:#ffffff;stop-opacity:0;" />
    </linearGradient>
    <linearGradient
       id="linearGradient4981">
      <stop
         style="stop-color:#cc0000;stop-opacity:1;"
         offset="0"
         id="stop4983" />
      <stop
         style="stop-color:#b30000;stop-opacity:1.0000000;"
         offset="1.0000000"
         id="stop4985" />
    </linearGradient>
    <radialGradient
       inkscape:collect="always"
       xlink:href="#linearGradient4126"
       id="radialGradient21650"
       cx="25.125"
       cy="36.75"
       fx="25.125"
       fy="36.75"
       r="15.75"
       gradientTransform="matrix(1,0,0,0.595238,0,14.875)"
       gradientUnits="userSpaceOnUse" />
    <linearGradient
       id="linearGradient9647">
      <stop
         style="stop-color:#ffffff;stop-opacity:1;"
         offset="0"
         id="stop9649" />
      <stop
         style="stop-color:#dbdbdb;stop-opacity:1;"
         offset="1"
         id="stop9651" />
    </linearGradient>
    <linearGradient
       id="linearGradient2256">
      <stop
         style="stop-color:#ff0202;stop-opacity:1;"
         offset="0"
         id="stop2258" />
      <stop
         style="stop-color:#ff9b9b;stop-opacity:1;"
         offset="1"
         id="stop2260" />
    </linearGradient>
    <radialGradient
       r="12.30225"
       fy="33.30225"
       fx="24.30225"
       cy="33.30225"
       cx="24.30225"
       gradientTransform="matrix(1.693981,0,0,1.693981,-16.86529,-23.715608)"
       gradientUnits="userSpaceOnUse"
       id="radialGradient2335"
       xlink:href="#linearGradient9647"
       inkscape:collect="always" />
    <linearGradient
       y2="35.05225"
       x2="24.30225"
       y1="15.80225"
       x1="21.75"
       gradientTransform="translate(-7.1723252e-7,-0.6044975)"
       gradientUnits="userSpaceOnUse"
       id="linearGradient2337"
       xlink:href="#linearGradient2256"
       inkscape:collect="always" />
    <linearGradient
       id="linearGradient3325">
      <stop
         id="stop30897"
         offset="0"
         style="stop-color:#d61313" />
      <stop
         id="stop30899"
         offset="1"
         style="stop-color:#ffffff" />
    </linearGradient>
    <linearGradient
       id="linearGradient3311">
      <stop
         id="stop30902"
         offset="0"
         style="stop-color:#fe0000" />
      <stop
         id="stop30904"
         offset="0.25"
         style="stop-color:#d20000" />
      <stop
         id="stop30906"
         offset="0.5"
         style="stop-color:#990000" />
      <stop
         id="stop30908"
         offset="0.75"
         style="stop-color:#c82f2f" />
      <stop
         id="stop30910"
         offset="1"
         style="stop-color:#fc6363" />
    </linearGradient>
    <linearGradient
       id="linearGradient3303">
      <stop
         id="stop30913"
         offset="0"
         style="stop-color:#d30000" />
      <stop
         id="stop30915"
         offset="1"
         style="stop-color:#fd6767" />
    </linearGradient>
    <linearGradient
       id="linearGradient2485">
      <stop
         id="stop30918"
         offset="0"
         style="stop-color:#663232" />
      <stop
         id="stop30920"
         offset="1"
         style="stop-color:#a70202" />
    </linearGradient>
    <linearGradient
       gradientTransform="translate(81.7143,353.849)"
       gradientUnits="userSpaceOnUse"
       xlink:href="#linearGradient2485"
       id="linearGradient2521"
       y2="98.848442"
       x2="117.45568"
       y1="98.848442"
       x1="10.754942" />
    <linearGradient
       gradientUnits="userSpaceOnUse"
       xlink:href="#linearGradient3303"
       id="linearGradient3309"
       y2="452.07587"
       x2="195.77328"
       y1="452.07587"
       x1="94.450401" />
    <linearGradient
       gradientUnits="userSpaceOnUse"
       xlink:href="#linearGradient3311"
       id="linearGradient3317"
       y2="451.79282"
       x2="193.68799"
       y1="451.79282"
       x1="97.563675" />
    <linearGradient
       gradientUnits="userSpaceOnUse"
       xlink:href="#linearGradient3325"
       id="linearGradient3331"
       y2="17.370178"
       x2="63.963604"
       y1="66.583618"
       x1="63.963604" />
    <filter
       id="filter3341"
       color-interpolation-filters="sRGB">
      <feGaussianBlur
         stdDeviation="1.1015221"
         id="feGaussianBlur3343" />
    </filter>
    <linearGradient
       gradientTransform="translate(-7.6908145,-7.983407)"
       gradientUnits="userSpaceOnUse"
       xlink:href="#linearGradient3325"
       id="linearGradient38"
       y2="17.370178"
       x2="63.963604"
       y1="66.583618"
       x1="63.963604" />
    <linearGradient
       gradientTransform="translate(-89.405114,-362.05941)"
       gradientUnits="userSpaceOnUse"
       xlink:href="#linearGradient3311"
       id="linearGradient41"
       y2="451.79282"
       x2="193.68799"
       y1="451.79282"
       x1="97.563675" />
    <linearGradient
       gradientTransform="translate(-89.405114,-362.05941)"
       gradientUnits="userSpaceOnUse"
       xlink:href="#linearGradient3303"
       id="linearGradient44"
       y2="452.07587"
       x2="195.77328"
       y1="452.07587"
       x1="94.450401" />
    <linearGradient
       gradientTransform="translate(-7.6908145,-8.210407)"
       gradientUnits="userSpaceOnUse"
       xlink:href="#linearGradient2485"
       id="linearGradient47"
       y2="98.848442"
       x2="117.45568"
       y1="98.848442"
       x1="10.754942" />
  </defs>
  <sodipodi:namedview
     id="base"
     pagecolor="#ffffff"
     bordercolor="#666666"
     borderopacity="1.0"
     inkscape:pageopacity="0.0"
     inkscape:pageshadow="2"
     inkscape:zoom="7.9195959"
     inkscape:cx="79.231309"
     inkscape:cy="45.066078"
     inkscape:document-units="px"
     inkscape:current-layer="g30418"
     showgrid="false"
     fit-margin-top="0"
     fit-margin-left="0"
     fit-margin-right="0"
     fit-margin-bottom="0"
     inkscape:window-width="1920"
     inkscape:window-height="1136"
     inkscape:window-x="0"
     inkscape:window-y="27"
     inkscape:window-maximized="1" />
  <metadata
     id="metadata7">
    <rdf:RDF>
      <cc:Work
         rdf:about="">
        <dc:format>image/svg+xml</dc:format>
        <dc:type
           rdf:resource="http://purl.org/dc/dcmitype/StillImage" />
        <dc:title></dc:title>
      </cc:Work>
    </rdf:RDF>
  </metadata>
  <g
     inkscape:label="Layer 1"
     inkscape:groupmode="layer"
     id="layer1"
     transform="translate(-276.57454,-254.80951)">
    <g
       id="g30418"
       transform="translate(-8.0812204,-82.83251)">
      <path
         style="fill:#129a47"
         d="m 354.85068,446.87322 c -1.54688,-0.62177 -2.8125,-1.4674 -2.8125,-1.87917 0,-1.83087 6.72746,-9.33188 8.36951,-9.33188 2.69167,0 9.13049,-6.91656 9.13049,-9.80794 0,-1.37513 -1.32658,-4.09028 -2.94796,-6.03365 -2.60707,-3.12482 -3.02456,-5.18559 -3.61038,-17.8211 -0.59997,-12.94079 -0.44026,-14.47268 1.69419,-16.25 6.30347,-5.24878 2.58421,-16.26502 -5.53908,-16.40647 -2.82282,-0.0491 -4.7816,-1.09619 -6.77125,-3.61949 l -2.79949,-3.55032 5.22841,-2.09199 c 10.80997,-4.32529 29.98744,-1.53225 42.13592,6.13675 2.58148,1.62961 7.0237,5.61007 9.87159,8.84545 8.47196,9.62466 8.59806,18.03443 0.5213,34.76797 -8.62083,17.86075 -20.8399,31.28495 -33.16313,36.43393 -4.97103,2.07703 -14.87672,2.38891 -19.30762,0.60791 z"
         id="path30420"
         inkscape:connector-curvature="0" />
      <rect
         style="fill:#ffffff;fill-opacity:1"
         id="rect30973"
         width="67.553955"
         height="80.054588"
         x="343.11835"
         y="385.19043" />
      <path
         style="fill:#fdcc07"
         d="m 322.30791,444.93747 c -12.7514,-6.35429 -25.94299,-21.15476 -33.96051,-38.10243 -8.69309,-18.3757 -2.00847,-33.05242 19.79119,-43.45352 7.39741,-3.52946 11.14209,-4.5126 18.89838,-4.9616 11.71167,-0.67798 17.40921,0.98359 23.18788,6.76225 4.2597,4.2597 4.26472,4.27861 1.7925,6.75083 -3.70129,3.70129 -3.30122,10.40109 0.8144,13.63844 1.81147,1.4249 4.30825,2.59073 5.54841,2.59073 2.64448,0 4.14491,7.04075 4.23003,19.84936 0.0523,7.86234 0.003,7.97987 -3.52036,8.36671 -5.36809,0.58941 -8.30165,3.90648 -8.30165,9.38694 0,3.55943 0.77751,5.32712 3.17127,7.21006 l 3.17128,2.49453 -4.08925,4.65739 c -7.69148,8.76013 -19.1944,10.56052 -30.73357,4.81031 z"
         id="path30426"
         inkscape:connector-curvature="0" />
      <g
         id="g30966"
         transform="matrix(0.57685578,0,0,0.68918572,344.67,387.27212)">
        <path
           style="opacity:0.5;fill:#000000;filter:url(#filter3341)"
           id="path3233"
           d="m 24.099296,2.643653 c -2.1365,0 -4.26916,0.83166 -5.90625,2.46875 l -13.0937505,13.0625 c -3.27419,3.27419 -3.27419,8.53832 0,11.8125 l 27.7500005,27.75 -27.7500005,27.71875 c -3.27419,3.27419 -3.27419,8.53831 0,11.8125 L 18.193046,110.33115 c 3.27419,3.27419 8.53831,3.27419 11.8125,0 l 27.71875,-27.718747 27.71875,27.718747 c 3.27418,3.27419 8.53831,3.27419 11.8125,0 L 110.3493,97.268653 c 3.27418,-3.27419 3.27418,-8.53831 0,-11.8125 l -27.750004,-27.71875 27.750004,-27.75 c 3.27418,-3.27418 3.27418,-8.53831 0,-11.8125 L 97.255546,5.112403 c -3.27419,-3.27418 -8.53832,-3.27418 -11.8125,0 l -27.71875,27.71875 -27.71875,-27.71875 c -1.63709,-1.63709 -3.76975,-2.46875 -5.90625,-2.46875 z"
           inkscape:connector-curvature="0" />
        <path
           style="fill:url(#linearGradient47)"
           id="path3235"
           d="m 22.684176,0.94550301 c -2.1365,0 -4.26916,0.83165999 -5.90625,2.46874999 l -13.0937545,13.0625 c -3.27418999,3.27419 -3.27418999,8.53832 0,11.8125 l 27.7500045,27.75 -27.7500045,27.71875 c -3.27418999,3.27419 -3.27418999,8.53831 0,11.8125 L 16.777926,108.633 c 3.27419,3.27419 8.53831,3.27419 11.8125,0 L 56.309176,80.914253 84.027926,108.633 c 3.27418,3.27419 8.53831,3.27419 11.8125,0 L 108.93418,95.570503 c 3.27418,-3.27419 3.27418,-8.53831 0,-11.8125 l -27.750004,-27.71875 27.750004,-27.75 c 3.27418,-3.27418 3.27418,-8.53831 0,-11.8125 L 95.840426,3.414253 c -3.27419,-3.27417999 -8.53832,-3.27417999 -11.8125,0 l -27.71875,27.71875 -27.71875,-27.71875 c -1.63709,-1.63709 -3.76975,-2.46874999 -5.90625,-2.46874999 z"
           inkscape:connector-curvature="0" />
        <path
           style="fill:url(#linearGradient44)"
           id="path3237"
           d="m 22.746676,4.070503 c -1.26886,0 -2.52773,0.49649 -3.5,1.46875 L 5.8404215,18.945503 c -1.94453,1.94453 -1.94453,5.08672 0,7.03125 l 30.0312545,30.0625 -30.0312545,30.03125 c -1.94453,1.94453 -1.94453,5.08672 0,7.03125 L 19.246676,106.508 c 1.94453,1.94453 5.05547,1.94454 7,0 l 30.0625,-30.062497 30.0625,30.062497 c 1.94453,1.94453 5.05547,1.94454 7,0 L 106.77793,93.101753 c 1.94453,-1.94453 1.94453,-5.08671 0,-7.03125 l -30.031254,-30.03125 30.031254,-30.0625 c 1.94453,-1.94453 1.94453,-5.08672 0,-7.03125 L 93.371676,5.539253 c -1.94453,-1.94453 -5.05547,-1.94453 -7,0 l -30.0625,30.0625 -30.0625,-30.0625 c -0.97227,-0.97226 -2.23114,-1.46875 -3.5,-1.46875 z"
           inkscape:connector-curvature="0" />
        <path
           style="fill:url(#linearGradient41)"
           id="path3239"
           d="m 22.751136,6.065593 c 0.74714,0 1.49112,0.27238 2.09375,0.875 l 31.46875,31.5 31.46875,-31.5 c 1.19036,-1.19036 2.99714,-1.19036 4.1875,0 l 13.406254,13.40625 c 1.18278,1.18278 1.18278,3.03597 0,4.21875 l -31.468754,31.46875 31.468754,31.4375 c 1.18279,1.1828 1.18278,3.03596 0,4.21875 L 91.969886,105.09684 c -1.19036,1.19036 -2.99715,1.19035 -4.1875,0 L 56.313636,73.628093 24.844886,105.09684 c -1.19036,1.19036 -2.99714,1.19036 -4.1875,0 L 7.2511355,91.690593 c -1.182782,-1.18278 -1.18278,-3.03597 0,-4.21875 L 38.688636,56.034343 7.2511355,24.565593 c -1.182782,-1.18278 -1.18278,-3.03597 0,-4.21875 L 20.657386,6.940593 c 0.60263,-0.60262 1.34662,-0.875 2.09375,-0.875 z"
           inkscape:connector-curvature="0" />
        <path
           style="fill:url(#linearGradient38)"
           id="rect2468"
           d="m 22.902936,9.485343 -13.1250005,13.125 33.4062505,33.40625 -1.375,1.375 c 4.688747,0.926993 9.540533,1.40625 14.5,1.40625 4.959467,0 9.811253,-0.479257 14.5,-1.40625 l -1.375,-1.375 33.406254,-33.40625 -13.125004,-13.125 -33.40625,33.40625 -33.40625,-33.40625 z"
           inkscape:connector-curvature="0" />
      </g>
    </g>
  </g>
</svg>
