<?xml version="1.0" encoding="UTF-8" standalone="no"?>
<!-- Created with Inkscape (http://www.inkscape.org/) -->

<svg
   xmlns:dc="http://purl.org/dc/elements/1.1/"
   xmlns:cc="http://creativecommons.org/ns#"
   xmlns:rdf="http://www.w3.org/1999/02/22-rdf-syntax-ns#"
   xmlns:svg="http://www.w3.org/2000/svg"
   xmlns="http://www.w3.org/2000/svg"
   xmlns:sodipodi="http://sodipodi.sourceforge.net/DTD/sodipodi-0.dtd"
   xmlns:inkscape="http://www.inkscape.org/namespaces/inkscape"
   width="36.297489mm"
   height="36.297489mm"
   viewBox="0 0 128.61315 128.61315"
   id="svg2"
   version="1.1"
   inkscape:version="0.91 r13725"
   inkscape:export-filename="/home/traian/Downloads/RV.png"
   inkscape:export-xdpi="11.2"
   inkscape:export-ydpi="11.2"
   sodipodi:docname="rv.svg">
  <defs
     id="defs4" />
  <sodipodi:namedview
     id="base"
     pagecolor="#ffffff"
     bordercolor="#666666"
     borderopacity="1.0"
     inkscape:pageopacity="0.0"
     inkscape:pageshadow="2"
     inkscape:zoom="7.9195959"
     inkscape:cx="79.231309"
     inkscape:cy="45.066078"
     inkscape:document-units="px"
     inkscape:current-layer="g30418"
     showgrid="false"
     fit-margin-top="0"
     fit-margin-left="0"
     fit-margin-right="0"
     fit-margin-bottom="0"
     inkscape:window-width="1920"
     inkscape:window-height="1136"
     inkscape:window-x="0"
     inkscape:window-y="27"
     inkscape:window-maximized="1" />
  <metadata
     id="metadata7">
    <rdf:RDF>
      <cc:Work
         rdf:about="">
        <dc:format>image/svg+xml</dc:format>
        <dc:type
           rdf:resource="http://purl.org/dc/dcmitype/StillImage" />
        <dc:title></dc:title>
      </cc:Work>
    </rdf:RDF>
  </metadata>
  <g
     inkscape:label="Layer 1"
     inkscape:groupmode="layer"
     id="layer1"
     transform="translate(-276.57454,-254.80951)">
    <g
       id="g30418"
       transform="translate(-8.0812204,-82.83251)">
      <path
         style="fill:#fdcc07"
         d="m 322.30791,444.93747 c -12.7514,-6.35429 -25.94299,-21.15476 -33.96051,-38.10243 -8.69309,-18.3757 -2.00847,-33.05242 19.79119,-43.45352 7.39741,-3.52946 11.14209,-4.5126 18.89838,-4.9616 11.71167,-0.67798 17.40921,0.98359 23.18788,6.76225 4.2597,4.2597 4.26472,4.27861 1.7925,6.75083 -3.70129,3.70129 -3.30122,10.40109 0.8144,13.63844 1.81147,1.4249 4.30825,2.59073 5.54841,2.59073 2.64448,0 4.14491,7.04075 4.23003,19.84936 0.0523,7.86234 0.003,7.97987 -3.52036,8.36671 -5.36809,0.58941 -8.30165,3.90648 -8.30165,9.38694 0,3.55943 0.77751,5.32712 3.17127,7.21006 l 3.17128,2.49453 -4.08925,4.65739 c -7.69148,8.76013 -19.1944,10.56052 -30.73357,4.81031 z"
         id="path30426"
         inkscape:connector-curvature="0" />
      <path
         style="fill:#129a47"
         d="m 354.85068,446.87322 c -1.54688,-0.62177 -2.8125,-1.4674 -2.8125,-1.87917 0,-1.83087 6.72746,-9.33188 8.36951,-9.33188 2.69167,0 9.13049,-6.91656 9.13049,-9.80794 0,-1.37513 -1.32658,-4.09028 -2.94796,-6.03365 -2.60707,-3.12482 -3.02456,-5.18559 -3.61038,-17.8211 -0.59997,-12.94079 -0.44026,-14.47268 1.69419,-16.25 6.30347,-5.24878 2.58421,-16.26502 -5.53908,-16.40647 -2.82282,-0.0491 -4.7816,-1.09619 -6.77125,-3.61949 l -2.79949,-3.55032 5.22841,-2.09199 c 10.80997,-4.32529 29.98744,-1.53225 42.13592,6.13675 2.58148,1.62961 7.0237,5.61007 9.87159,8.84545 8.47196,9.62466 8.59806,18.03443 0.5213,34.76797 -8.62083,17.86075 -20.8399,31.28495 -33.16313,36.43393 -4.97103,2.07703 -14.87672,2.38891 -19.30762,0.60791 z"
         id="path30420"
         inkscape:connector-curvature="0" />
    </g>
  </g>
</svg>
